<?xml version="1.0" encoding="UTF-8"?>
<svg id="logo" xmlns="http://www.w3.org/2000/svg" viewBox="0 0 200 63">
  <defs>
    <style>
      .cls-1 {
        fill: #0a314e;
      }

      .cls-1, .cls-2, .cls-3, .cls-4, .cls-5, .cls-6 {
        stroke-width: 0px;
      }

      .cls-2 {
        fill: #b9955d;
      }

      .cls-3 {
        fill: #8bc4e5;
      }

      .cls-4 {
        fill: #fff;
      }

      .cls-5 {
        fill: #051f35;
      }

      .cls-6 {
        fill: #003259;
      }
    </style>
  </defs>
  <g>
    <path id="path3015" class="cls-1" d="m26.07,1l-2.27.93c-2.87,1.18-8.54,3.11-12.01,4.1-2.82.8-8.44,2.01-9.17,2.08l-1.52.14.05,2.67-.09,4.28c-.17,2.14.08,11,.28,13,.46,4.57,1.17,7.24,2.83,10.61,4.64,9.42,12.85,18.65,20.24,22.79.77.43,1.51.79,1.65.79v.04c.15,0,.89-.35,1.66-.78,7.4-4.14,15.6-13.37,20.24-22.79,1.66-3.38,2.38-6.05,2.83-10.61.2-2,.35-10.77.18-12.91v-4.37s.06-2.67.06-2.67l-1.52-.14c-.73-.07-6.36-1.28-9.17-2.08-3.47-.99-9.14-2.92-12.01-4.1l-2.27-.93v-.04Z"/>
    <path id="path2991" class="cls-5" d="m26.07,2.53l-2.16.89c-2.73,1.12-8.11,2.96-11.41,3.89-2.68.76-8.02,1.91-8.72,1.97l-1.44.13.05,2.54-.09,4.06c-.16,2.03.08,10.46.27,12.35.43,4.34,1.11,6.88,2.69,10.08,4.41,8.95,12.21,17.72,19.23,21.65.73.41,1.43.75,1.57.75v.03c.14,0,.85-.33,1.57-.74,7.03-3.93,14.82-12.71,19.23-21.66,1.58-3.21,2.26-5.74,2.69-10.08.19-1.9.34-10.23.17-12.26v-4.16s.06-2.54.06-2.54l-1.44-.13c-.69-.06-6.04-1.21-8.72-1.97-3.3-.94-8.68-2.77-11.41-3.89l-2.15-.89v-.03Z"/>
    <path id="path3019" class="cls-2" d="m26.06,4.37l-2.02.83c-2.56,1.05-7.6,2.77-10.69,3.65-2.51.71-7.52,1.79-8.17,1.85l-1.35.12.05,2.38-.08,3.8c-.15,1.9.08,9.8.25,11.58.41,4.06,1.04,6.44,2.52,9.44,4.13,8.38,11.43,16.59,18.02,20.28.68.38,1.34.7,1.47.7v.04c.13,0,.79-.31,1.48-.69,6.58-3.68,13.88-11.91,18.02-20.29,1.48-3,2.11-5.38,2.52-9.44.18-1.78.31-9.58.16-11.49v-3.89s.06-2.38.06-2.38l-1.35-.12c-.65-.06-5.65-1.14-8.16-1.85-3.09-.88-8.14-2.6-10.69-3.64l-2.02-.83v-.04Z"/>
    <path id="path4251" class="cls-6" d="m26.06,5.53v.03l1.93.79c2.45,1,7.28,2.65,10.24,3.49,2.4.68,7.2,1.71,7.83,1.77l1.3.12-.05,2.27v3.73c.14,1.82,0,9.3-.16,11-.39,3.89-1,6.17-2.41,9.05-3.96,8.03-10.95,15.9-17.26,19.43-.65.37-1.29.66-1.41.67v-.03c-.13,0-.76-.31-1.41-.67-6.31-3.53-13.3-11.39-17.26-19.42-1.42-2.88-2.03-5.16-2.41-9.05-.17-1.7-.39-9.26-.24-11.08l.08-3.65-.04-2.27,1.29-.12c.62-.06,5.42-1.09,7.83-1.77,2.96-.84,7.79-2.49,10.24-3.49l1.94-.79Z"/>
    <path id="path4259" class="cls-3" d="m26.06,25.36l-11.1.63-7.69,1.64c-.59.13-1.64.52-2.31.9,0,.06.01.14.02.19.39,3.89,1,6.17,2.41,9.05,3.96,8.03,10.95,15.9,17.26,19.42.65.37,1.29.67,1.41.67h0s0-6.35,0-6.35v-6.54s0-6.54,0-6.54v-6.54s0-6.54,0-6.54Z"/>
    <path id="path3074" class="cls-2" d="m4.26,29.19c.62-.39.43-.22,1.31-.57.89-.34,1.89-.66,3.01-.95,1.12-.29,2.34-.55,3.66-.78,1.31-.23,2.71-.43,4.19-.59,1.48-.16,3.03-.29,4.63-.38,1.61-.09,3.27-.13,4.97-.13s3.36.04,4.97.13,3.16.21,4.63.38c1.48.16,2.87.36,4.19.59,1.31.23,2.53.49,3.65.78,1.12.29,2.13.61,3.01.95s.64.09,1.27.47v-.62c-.62-.39-.38-.13-1.27-.47s-1.9-.66-3.01-.95c-1.12-.29-2.34-.55-3.65-.78s-2.71-.43-4.19-.59c-1.48-.16-3.03-.29-4.63-.38-1.61-.09-3.27-.13-4.97-.13s-3.36.04-4.97.13c-1.61.09-3.16.21-4.63.38-1.48.16-2.87.36-4.19.59-1.31.23-2.54.49-3.66.78-1.12.29-2.12.61-3.01.95s-.69.18-1.31.57"/>
    <g>
      <path id="path3129" class="cls-4" d="m19.13,30.19v1.5l-.39-.34c-.52-.44-.8-.44-.69-.01.05.21.03.32-.07.32-.08,0-.12.1-.08.22.13.47.23.86.35,1.34h3.89s.41-1.57.41-1.57c-.12,0-.15-.12-.09-.41.07-.37.05-.39-.17-.27-.14.07-.35.26-.49.41-.19.21-.3.29-.37.23l-.18-1.36-.93,1.4-1.19-1.47Zm8.98,3.83c-.39.03-1.29.34-1.94.77-.35.23-.78.55-.95.71-.17.16-.48.32-.68.37-.57.13-.56.31.05.59.7.33,2.16.28,3.18-.11.37-.14.9-.43,1.17-.64.57-.45,1.49-.94,1.78-.94.11,0,.2-.05.2-.11,0-.18-1.19-.3-2.16-.21-.81.08-.86.07-.64-.12.29-.23.24-.32,0-.3h0Zm-8.77.23c-2.21,0-4.01.74-4.8,1.99-1.17,1.85-.9,4.72.61,6.31.97,1.03,2.67,1.81,4.35,2,1.33.15,1.39.31.49,1.45-.42.54-.7.76-1.2.94-.36.13-.79.39-.97.58l-.32.34.49-.09c.46-.09.48-.07.48.25,0,.41,0,.42.74.02.61-.33.81-.33.81,0,0,.24.07.24.53-.04.42-.25.47-.44.17-.74-.34-.34.12-1.07,1.07-1.69l.79-.52-.06-.78-.06-.78.25.4c.61.95,1.54,1.32,2.72,1.09.88-.17,2.85-.89,3.03-1.05.23-.21.57-.12,1,.27.23.21.5.39.59.39.24,0,.19.35-.2,1.35-.32.82-.39.91-.87,1.07-.28.1-.63.3-.78.44l-.26.26.39-.04c.32-.04.4,0,.43.25.05.35.05.36.57.04.5-.3.88-.33.88-.07,0,.15.37.16.68.05.48-.17.49-.39.05-.8-.32-.3-.33-.33-.16-.81.1-.28.49-.82.89-1.22l.72-.72-.37-.77c-.36-.76-.49-1.77-.24-1.93.07-.04.19.12.26.37.22.68.48.82,1.58.88,1.28.08,1.65.31,1.65.99,0,.81-.41,1.09-1.76,1.18-.25.02-.46,0-.62-.02-.16-.03-.31.04-.41.01l-.48.04-.72,1.04c-.05.12,2.32.24,3.15.24,2.37-.01,3.72-2.63,2.36-4.58-.14-.21-.27-.5-.28-.65-.01-.15-.2-.39-.42-.53-.24-.16-.41-.37-.41-.54,0-.23-.13-.31-.75-.46-.59-.14-.75-.24-.75-.44,0-.22-.1-.26-.87-.29-.76-.03-.87-.07-.87-.28,0-.39-.2-.42-1.07-.19-1.12.3-1.19.29-1.24-.04-.05-.37-.38-.38-1.31-.02-.78.29-1.05.26-1.05-.13,0-.14-.03-.26-.06-.26s-.53.17-1.11.38c-1.02.37-1.05.38-1.12.13-.09-.34-.43-.31-1.52.13-.62.25-.96.33-1.07.24-.29-.24-1.32.23-2.98,1.35-.89.6-1.47.78-2.31.71-.58-.05-.76-.13-1.1-.48-.54-.56-.78-1.18-.8-2.06-.02-.89.21-1.4.79-1.8.68-.46,1.43-.41,2.16.15.49.37.7.45,1.21.45.86,0,1.97-.23,2.19-.45.16-.16.14-.2-.19-.26-.21-.04-.61-.19-.89-.32l-.52-.24.78-.02c.97-.03,1.36-.13,1.54-.42.18-.28.08-.35-1.26-.87-.86-.33-1.2-.39-2.21-.39h0Zm.09.45c.26,0,.48.17.48.38s-.21.37-.48.37-.48-.16-.48-.37.21-.38.48-.38Zm10.4,10.47c-.2.03-1.6.05-2,.09-.96.12-2.75.53-3.23.72-.41.16-1.1.75-1.1.94,0,.06.15.29.38.12.23-.17.93-.57,1.32-.69.47-.15,1.29-.25,2.4-.29.85-.03,1.53.13,1.79.05l.44-.94Z"/>
      <g>
        <path class="cls-4" d="m20.55,19.67h-2.02v-2.75h-3.69v2.74h-1.88v-9.28h1.9v4.63h3.66v-4.61h2.03v9.26Z"/>
        <path class="cls-4" d="m37.56,16.49c.52.43,1.01.84,1.5,1.24-.66,1.13-2.47,2.34-4.65,1.95-2.12-.39-3.71-2.18-3.84-4.33-.12-2.15,1.23-4.11,3.25-4.74,2.18-.68,4.21.33,5.09,1.59-.49.38-.98.76-1.49,1.16-.07-.08-.13-.15-.19-.22-1.09-1.31-3.01-1.25-4.03.13-.84,1.14-.77,2.71.17,3.76,1.13,1.27,3.08,1.11,4.04-.34.04-.06.08-.12.13-.2Z"/>
        <path class="cls-4" d="m24.28,18.65c-.2.35-.38.68-.57,1.01h-1.81c1.35-3.11,2.73-6.16,4.12-9.22,1.49,3.05,2.95,6.1,4.29,9.24h-1.98c-.18-.34-.36-.68-.54-1.02h-3.52Zm2.76-1.76c-.35-.81-.69-1.6-1.03-2.39-.02,0-.03,0-.05,0-.34.79-.67,1.58-1.02,2.38h2.1Z"/>
        <path class="cls-4" d="m16.49,24.33h-.74c-.58-.77-1.16-1.53-1.74-2.29-.01,0-.03,0-.04,0v2.28h-.86v-3.9h.75c.57.75,1.15,1.5,1.73,2.25h.04v-2.25h.86v3.9Z"/>
        <path class="cls-4" d="m36.14,24.33h-.86v-3.9h.75c.58.75,1.16,1.51,1.74,2.27.01,0,.03,0,.04-.01v-2.26h.85v3.89h-.75c-.57-.75-1.15-1.51-1.72-2.27-.02,0-.03,0-.05.01v2.26Z"/>
        <path class="cls-4" d="m34.68,22.37c0,1.19-.85,2.04-2.03,2.04-1.16,0-2-.87-2-2.05,0-1.17.85-2,2.04-2,1.19,0,1.99.82,1.99,2.01Zm-3.12-.02c0,.25.05.48.17.69.21.36.5.59.93.59.41,0,.73-.2.92-.55.26-.47.26-.96-.01-1.43-.29-.51-.95-.66-1.44-.35-.39.24-.56.62-.57,1.06Z"/>
        <path class="cls-4" d="m24.11,20.43h.85c.47,1.29.93,2.58,1.41,3.89h-.96c-.1-.31-.2-.63-.3-.95h-1.15c-.1.32-.2.63-.3.95h-.93c.47-1.32.93-2.6,1.39-3.9Zm.77,2.17c-.12-.38-.22-.73-.32-1.07-.01,0-.03,0-.04,0-.1.35-.21.7-.32,1.06h.69Z"/>
        <path class="cls-4" d="m18.35,20.42h.85c.47,1.29.93,2.58,1.42,3.91-.34.02-.64.02-.97,0-.1-.32-.2-.64-.3-.96h-1.16c-.1.31-.19.62-.3.95h-.92c.45-1.31.93-2.6,1.38-3.9Zm.44,1.09s-.02,0-.04,0c-.11.35-.21.71-.32,1.08h.68c-.11-.38-.22-.73-.32-1.08Z"/>
        <path class="cls-4" d="m26.25,21.17v-.73h2.37v.72h-.73v3.16h-.88v-3.15h-.76Z"/>
        <path class="cls-4" d="m21.24,24.32v-3.15h-.74v-.74h2.35v.72h-.72v3.17h-.89Z"/>
        <path class="cls-4" d="m29.2,20.43h.85v3.9h-.85v-3.9Z"/>
      </g>
      <path class="cls-4" d="m29.72,50.61c-.11.07-.23.15-.35.23-.21-.08-.41-.17-.63-.29.26-.23.55-.41.82-.6.03-.02.07-.03.1-.03.32,0,.64,0,.98,0v3.52h-.86v-2.81l-.06-.02Z"/>
      <path class="cls-4" d="m28.19,53.43h-.85v-2.83c-.19.03-.28.18-.45.22-.19-.09-.4-.16-.62-.3.3-.21.57-.41.85-.6.03-.02.07-.02.1-.02.31,0,.63,0,.96,0v3.53Z"/>
      <path class="cls-4" d="m22.4,53.43h-.85v-2.83c-.19.03-.28.18-.45.22-.19-.09-.4-.16-.62-.3.3-.21.57-.41.85-.6.03-.02.07-.02.1-.02.31,0,.63,0,.96,0v3.53Z"/>
      <path class="cls-4" d="m22.91,52.53c.28,0,.6.01.88.01.09.24.21.4.54.4.31,0,.5-.12.51-.49,0-.16,0-.32,0-.49-.15,0-.26,0-.38,0-.34,0-.68,0-1-.15-.35-.17-.55-.37-.55-.84,0-.38.14-.75.51-.91.3-.13.6-.15.9-.16.34,0,.68.03,1.02.21.29.16.43.42.42.76-.01.5-.01.99,0,1.49.01.61-.33.82-.56.92-.55.2-1.33.19-1.75,0-.32-.14-.54-.45-.53-.75Zm.93-1.6c0,.33.12.57.49.57s.49-.22.49-.57-.16-.57-.49-.57-.49.24-.49.57Z"/>
      <path class="cls-4" d="m25.54,34.16s0-1.59,0-2.34c-.68-.05-1.34.1-2,.23-.05-1.11-.22-2.16-.64-3.16-.42-.99-1.05-1.84-1.8-2.65,1.07-.04,2.39.5,2.7,1.08-.19.04-.39-.06-.58.1.69,1.09,1.11,2.28,1.19,3.61.38-.08.77-.08,1.13-.07,0-1.29,0-2.55,0-3.82-.26-.06-.54,0-.83.08.27-.44,1.29-2.22,1.41-2.27h0c.12.05,1.14,1.83,1.41,2.27-.29-.07-.58-.14-.84-.08v3.82c.37,0,.76-.01,1.15.07.09-1.33.5-2.51,1.19-3.61-.19-.16-.39-.07-.58-.1.31-.59,1.63-1.12,2.7-1.08-.75.8-1.38,1.66-1.8,2.65-.43,1-.59,2.05-.64,3.16-.66-.13-1.33-.28-2.01-.23v2.34h-1.15Z"/>
    </g>
  </g>
  <g>
    <path class="cls-4" d="m78.47,38.97h-3.63v-4.94h-6.63v4.93h-3.38v-16.66h3.41v8.31h6.58v-8.28h3.65v16.63Z"/>
    <path class="cls-4" d="m108.99,33.26c.93.77,1.81,1.5,2.69,2.23-1.18,2.03-4.44,4.21-8.35,3.5-3.82-.69-6.67-3.92-6.89-7.77-.22-3.85,2.2-7.37,5.83-8.51,3.91-1.23,7.55.6,9.14,2.86-.88.68-1.76,1.37-2.67,2.08-.12-.14-.23-.26-.34-.39-1.96-2.35-5.4-2.24-7.23.23-1.51,2.04-1.38,4.86.31,6.75,2.04,2.28,5.54,1.99,7.26-.61.07-.11.14-.21.24-.37Z"/>
    <path class="cls-4" d="m85.15,37.13c-.35.63-.69,1.23-1.02,1.81h-3.24c2.43-5.58,4.9-11.06,7.41-16.56,2.68,5.47,5.29,10.95,7.71,16.59h-3.56c-.32-.6-.64-1.21-.97-1.84h-6.32Zm4.96-3.17c-.63-1.46-1.24-2.87-1.85-4.28-.03,0-.06,0-.09,0-.61,1.41-1.21,2.83-1.83,4.28h3.78Z"/>
  </g>
  <g>
    <path class="cls-4" d="m129.92,38.9h-2.32c-1.81-2.39-3.61-4.76-5.42-7.14-.04,0-.08.02-.12.02v7.11h-2.68v-12.14h2.34c1.79,2.33,3.59,4.68,5.38,7.02l.14-.04v-6.98h2.67v12.15Z"/>
    <path class="cls-4" d="m191.15,38.89h-2.67v-12.15h2.32c1.79,2.34,3.6,4.71,5.42,7.07.05-.01.09-.02.14-.04v-7.04h2.64v12.14h-2.33c-1.77-2.33-3.57-4.71-5.38-7.08-.05.01-.1.02-.14.04v7.06Z"/>
    <path class="cls-4" d="m186.61,32.78c0,3.72-2.64,6.36-6.33,6.34-3.61-.01-6.23-2.71-6.22-6.39,0-3.66,2.66-6.25,6.36-6.23,3.71.02,6.2,2.55,6.19,6.28Zm-9.72-.06c-.01.77.16,1.49.54,2.15.64,1.11,1.57,1.83,2.9,1.83,1.29,0,2.27-.62,2.88-1.73.81-1.48.81-3-.04-4.47-.91-1.57-2.95-2.07-4.5-1.1-1.21.76-1.73,1.92-1.79,3.32Z"/>
    <path class="cls-4" d="m153.68,26.74h2.66c1.45,4.03,2.9,8.03,4.39,12.14h-3c-.31-.97-.62-1.95-.94-2.97h-3.6c-.31.99-.63,1.97-.95,2.98h-2.89c1.46-4.1,2.89-8.12,4.33-12.15Zm2.41,6.76c-.36-1.19-.68-2.27-1.01-3.34-.05,0-.09.02-.14.03-.33,1.09-.65,2.17-.99,3.31h2.14Z"/>
    <path class="cls-4" d="m135.7,26.73h2.64c1.45,4.01,2.91,8.03,4.41,12.18-1.05.06-2,.05-3.01,0-.31-1.01-.62-1.99-.94-3h-3.61c-.3.97-.6,1.94-.92,2.97h-2.88c1.39-4.1,2.88-8.11,4.31-12.15Zm1.39,3.39s-.08,0-.12,0c-.33,1.11-.67,2.21-1.01,3.35h2.13c-.35-1.17-.68-2.26-1-3.36Z"/>
    <path class="cls-4" d="m160.34,29.05v-2.27h7.38v2.25h-2.27v9.86h-2.75v-9.83h-2.37Z"/>
    <path class="cls-4" d="m144.71,38.88v-9.81h-2.32v-2.31h7.32v2.25h-2.24v9.87h-2.76Z"/>
    <path class="cls-4" d="m169.53,26.74h2.64v12.15h-2.64v-12.15Z"/>
  </g>
</svg>