<?xml version="1.0" encoding="UTF-8"?>
<svg id="Layer_1" data-name="Layer 1" xmlns="http://www.w3.org/2000/svg" viewBox="0 0 235.33 73">
  <defs>
    <style>
      .cls-1 {
        fill: #0a314e;
      }

      .cls-1, .cls-2, .cls-3, .cls-4, .cls-5, .cls-6 {
        stroke-width: 0px;
      }

      .cls-2 {
        fill: #b9955d;
      }

      .cls-3 {
        fill: #8bc4e5;
      }

      .cls-4 {
        fill: #fff;
      }

      .cls-5 {
        fill: #051f35;
      }

      .cls-6 {
        fill: #003259;
      }
    </style>
  </defs>
  <g>
    <path id="path3015" class="cls-1" d="m29.8,0l-2.7,1.11c-3.41,1.4-10.15,3.7-14.28,4.87-3.35.95-10.04,2.39-10.9,2.47l-1.8.17.06,3.17-.11,5.08c-.21,2.54.1,13.08.34,15.45.54,5.43,1.39,8.6,3.37,12.61,5.52,11.19,15.27,22.16,24.06,27.08.91.51,1.79.93,1.96.93v.04c.18,0,1.06-.42,1.97-.93,8.79-4.92,18.54-15.89,24.06-27.09,1.98-4.01,2.82-7.19,3.37-12.61.24-2.37.42-12.8.22-15.34v-5.2s.07-3.17.07-3.17l-1.8-.17c-.87-.08-7.56-1.52-10.9-2.47-4.13-1.17-10.86-3.47-14.28-4.87L29.8.04v-.04Z"/>
    <path id="path2991" class="cls-5" d="m29.8,1.82l-2.57,1.05c-3.24,1.33-9.64,3.51-13.56,4.63-3.18.9-9.53,2.27-10.36,2.35l-1.71.16.06,3.02-.1,4.83c-.19,2.42.09,12.43.32,14.68.51,5.16,1.32,8.17,3.2,11.98,5.24,10.64,14.51,21.06,22.86,25.73.87.48,1.7.89,1.86.89v.04c.17,0,1-.4,1.87-.88,8.35-4.67,17.62-15.1,22.86-25.74,1.88-3.81,2.68-6.83,3.2-11.98.23-2.26.4-12.16.21-14.58v-4.94s.07-3.02.07-3.02l-1.71-.16c-.83-.08-7.18-1.44-10.36-2.35-3.92-1.11-10.32-3.3-13.56-4.63l-2.56-1.05v-.04Z"/>
    <path id="path3019" class="cls-2" d="m29.79,4.01l-2.4.99c-3.04,1.24-9.04,3.3-12.71,4.34-2.98.85-8.93,2.13-9.71,2.2l-1.6.15.06,2.83-.1,4.52c-.18,2.26.09,11.65.3,13.76.48,4.83,1.23,7.65,3,11.22,4.91,9.96,13.59,19.72,21.41,24.1.81.45,1.59.83,1.74.83v.04c.16,0,.94-.37,1.76-.83,7.83-4.38,16.5-14.15,21.41-24.12,1.76-3.57,2.51-6.39,3-11.22.21-2.11.37-11.39.19-13.65v-4.63s.07-2.83.07-2.83l-1.61-.15c-.77-.07-6.72-1.35-9.7-2.2-3.67-1.04-9.67-3.09-12.71-4.33l-2.4-.99v-.04Z"/>
    <path id="path4251" class="cls-6" d="m29.79,5.38v.03l2.3.94c2.91,1.19,8.65,3.15,12.17,4.15,2.85.81,8.56,2.04,9.3,2.11l1.54.15-.06,2.7v4.44c.17,2.17,0,11.05-.2,13.07-.46,4.63-1.18,7.34-2.87,10.76-4.71,9.54-13.02,18.9-20.51,23.09-.78.44-1.53.79-1.67.79v-.03c-.15,0-.9-.36-1.68-.8-7.5-4.19-15.81-13.54-20.51-23.09-1.69-3.42-2.41-6.13-2.87-10.76-.2-2.02-.46-11-.29-13.17l.09-4.34-.05-2.7,1.53-.15c.74-.07,6.45-1.3,9.3-2.11,3.52-1,9.26-2.96,12.17-4.15l2.3-.94Z"/>
    <path id="path4259" class="cls-3" d="m29.79,28.95l-13.19.75-9.14,1.95c-.71.15-1.95.62-2.74,1.07,0,.07.01.16.02.22.46,4.63,1.18,7.34,2.87,10.76,4.71,9.54,13.02,18.89,20.51,23.09.78.44,1.53.8,1.67.8h0s0-7.54,0-7.54v-7.77s0-7.77,0-7.77v-7.77s0-7.77,0-7.77Z"/>
    <path id="path3074" class="cls-2" d="m3.88,33.51c.74-.46.51-.27,1.56-.67,1.05-.41,2.25-.79,3.58-1.13,1.33-.35,2.79-.66,4.35-.93,1.56-.28,3.22-.51,4.98-.71,1.75-.19,3.6-.35,5.51-.45,1.91-.1,3.88-.15,5.91-.15s4,.05,5.91.15,3.75.25,5.51.45c1.75.19,3.42.43,4.98.71,1.56.28,3.01.58,4.34.93,1.33.35,2.53.73,3.58,1.13s.76.1,1.5.56v-.73c-.74-.46-.45-.15-1.5-.56s-2.26-.79-3.58-1.13c-1.33-.35-2.78-.66-4.34-.93s-3.22-.51-4.98-.71c-1.75-.19-3.6-.35-5.51-.45-1.91-.1-3.88-.15-5.91-.15s-4,.05-5.91.15c-1.91.1-3.75.25-5.51.45-1.75.19-3.42.43-4.98.71-1.56.28-3.02.58-4.35.93-1.33.35-2.52.73-3.58,1.13s-.82.22-1.56.67"/>
    <g>
      <path id="path3129" class="cls-4" d="m21.55,34.69v1.78l-.47-.4c-.62-.52-.95-.53-.83-.01.06.25.03.38-.08.38-.1,0-.14.12-.1.27.15.56.27,1.02.42,1.6h4.63s.49-1.86.49-1.86c-.15,0-.17-.14-.1-.48.09-.44.06-.46-.2-.32-.16.09-.42.31-.58.48-.22.25-.36.35-.44.27l-.21-1.62-1.1,1.67-1.42-1.74Zm10.68,4.56c-.47.03-1.53.41-2.3.92-.42.27-.93.66-1.13.85-.21.19-.58.38-.81.43-.68.15-.66.36.06.7.83.39,2.57.33,3.78-.13.44-.17,1.07-.51,1.39-.76.68-.54,1.78-1.12,2.11-1.12.13,0,.24-.06.24-.13,0-.22-1.42-.36-2.57-.25-.96.09-1.03.08-.76-.14.34-.27.28-.38,0-.36h0Zm-10.43.27c-2.63,0-4.76.88-5.7,2.37-1.39,2.2-1.07,5.61.72,7.5,1.16,1.23,3.18,2.16,5.17,2.38,1.58.18,1.65.36.59,1.73-.49.64-.83.9-1.43,1.12-.43.16-.94.47-1.15.69l-.38.4.58-.11c.55-.1.57-.09.57.29,0,.49,0,.5.88.03.73-.39.97-.39.97,0,0,.28.09.28.63-.04.5-.3.56-.53.2-.88-.4-.4.15-1.27,1.27-2.01l.94-.62-.08-.92-.07-.92.3.48c.72,1.13,1.83,1.57,3.23,1.29,1.05-.21,3.39-1.06,3.6-1.25.27-.25.68-.14,1.19.32.28.25.59.46.7.46.29,0,.23.41-.24,1.6-.38.97-.47,1.08-1.03,1.27-.34.12-.75.35-.92.52l-.31.31.46-.05c.38-.04.47,0,.51.29.06.42.05.42.68.04.59-.36,1.04-.4,1.04-.08,0,.18.44.19.81.06.57-.2.58-.47.06-.95-.38-.36-.39-.4-.19-.97.12-.33.58-.97,1.06-1.45l.85-.85-.43-.92c-.43-.91-.58-2.11-.29-2.29.08-.05.22.15.31.43.27.81.57.97,1.88,1.05,1.52.09,1.97.36,1.97,1.18,0,.97-.49,1.29-2.09,1.4-.3.02-.54,0-.73-.03-.19-.03-.36.05-.48.01l-.57.05-.86,1.23c-.07.14,2.76.29,3.74.28,2.82-.02,4.42-3.12,2.8-5.44-.17-.25-.32-.59-.34-.77-.01-.18-.24-.46-.5-.63-.29-.18-.49-.44-.49-.64,0-.27-.16-.37-.89-.55-.7-.17-.89-.28-.89-.52,0-.26-.12-.31-1.04-.35-.9-.04-1.04-.08-1.04-.34,0-.46-.24-.5-1.27-.22-1.33.35-1.41.35-1.47-.05-.06-.44-.45-.45-1.55-.03-.92.35-1.25.31-1.25-.15,0-.17-.03-.31-.07-.31s-.63.2-1.32.45c-1.21.44-1.25.45-1.33.15-.11-.41-.52-.37-1.81.15-.74.3-1.14.39-1.27.29-.35-.29-1.57.27-3.54,1.61-1.06.72-1.75.93-2.75.85-.68-.06-.91-.15-1.3-.57-.64-.67-.93-1.4-.95-2.45-.03-1.05.24-1.66.94-2.13.81-.55,1.69-.49,2.57.18.58.44.84.54,1.44.54,1.02,0,2.34-.27,2.6-.53.19-.19.16-.23-.22-.31-.25-.05-.73-.23-1.06-.38l-.62-.29.92-.03c1.16-.03,1.62-.15,1.83-.5.21-.34.1-.41-1.5-1.03-1.03-.39-1.42-.46-2.62-.46h0Zm.11.53c.31,0,.57.2.57.45s-.25.44-.57.44-.57-.2-.57-.44.25-.45.57-.45Zm12.37,12.44c-.23.04-1.91.05-2.37.11-1.14.14-3.27.63-3.84.85-.49.19-1.31.89-1.31,1.12,0,.07.18.35.45.15.27-.2,1.1-.67,1.57-.83.56-.18,1.53-.3,2.85-.35,1.01-.04,1.82.15,2.13.06l.52-1.11Z"/>
      <g>
        <path class="cls-4" d="m23.24,22.19h-2.4v-3.27h-4.39v3.26h-2.24v-11.03h2.26v5.5h4.36v-5.48h2.42v11.01Z"/>
        <path class="cls-4" d="m43.45,18.41c.62.51,1.2.99,1.78,1.48-.78,1.35-2.94,2.79-5.53,2.32-2.53-.46-4.41-2.59-4.56-5.14-.15-2.55,1.46-4.88,3.86-5.64,2.59-.81,5,.4,6.05,1.89-.58.45-1.16.9-1.77,1.37-.08-.09-.15-.17-.22-.26-1.3-1.55-3.58-1.48-4.79.15-1,1.35-.91,3.22.21,4.47,1.35,1.51,3.67,1.32,4.81-.4.05-.07.09-.14.16-.24Z"/>
        <path class="cls-4" d="m27.67,20.98c-.23.42-.46.81-.67,1.2h-2.15c1.61-3.7,3.25-7.32,4.9-10.96,1.77,3.62,3.5,7.25,5.1,10.98h-2.36c-.21-.4-.42-.8-.64-1.22h-4.19Zm3.29-2.1c-.42-.97-.82-1.9-1.23-2.84-.02,0-.04,0-.06,0-.4.94-.8,1.87-1.21,2.83h2.5Z"/>
        <path class="cls-4" d="m18.41,27.73h-.88c-.69-.91-1.38-1.82-2.07-2.72-.02,0-.03,0-.05,0v2.71h-1.02v-4.63h.89c.68.89,1.37,1.78,2.05,2.68h.05v-2.68h1.02v4.63Z"/>
        <path class="cls-4" d="m41.76,27.72h-1.02v-4.63h.89c.68.89,1.37,1.8,2.07,2.7.02,0,.04,0,.05-.01v-2.68h1.01v4.63h-.89c-.67-.89-1.36-1.8-2.05-2.7-.02,0-.04,0-.06.01v2.69Z"/>
        <path class="cls-4" d="m40.03,25.4c0,1.42-1.01,2.42-2.41,2.42-1.38,0-2.37-1.03-2.37-2.44,0-1.39,1.01-2.38,2.43-2.37,1.42,0,2.36.97,2.36,2.39Zm-3.71-.02c0,.29.06.57.21.82.25.42.6.7,1.1.7.49,0,.87-.24,1.1-.66.31-.56.31-1.15-.01-1.71-.35-.6-1.13-.79-1.71-.42-.46.29-.66.73-.68,1.26Z"/>
        <path class="cls-4" d="m27.47,23.09h1.01c.55,1.54,1.11,3.06,1.67,4.63h-1.14c-.12-.37-.24-.75-.36-1.13h-1.37c-.12.38-.24.75-.36,1.13h-1.1c.56-1.56,1.1-3.1,1.65-4.63Zm.92,2.58c-.14-.46-.26-.86-.38-1.27-.02,0-.04,0-.05.01-.12.41-.25.83-.38,1.26h.82Z"/>
        <path class="cls-4" d="m20.62,23.09h1.01c.55,1.53,1.11,3.06,1.68,4.65-.4.02-.76.02-1.15,0-.12-.38-.24-.76-.36-1.14h-1.38c-.11.37-.23.74-.35,1.13h-1.1c.53-1.56,1.1-3.09,1.64-4.63Zm.53,1.29s-.03,0-.04,0c-.13.42-.25.84-.39,1.28h.81c-.13-.45-.26-.86-.38-1.28Z"/>
        <path class="cls-4" d="m30.01,23.97v-.87h2.82v.86h-.86v3.76h-1.05v-3.75h-.9Z"/>
        <path class="cls-4" d="m24.05,27.72v-3.74h-.88v-.88h2.79v.86h-.85v3.76h-1.05Z"/>
        <path class="cls-4" d="m33.52,23.09h1.01v4.63h-1.01v-4.63Z"/>
      </g>
      <path class="cls-4" d="m34.14,58.96c-.14.09-.27.18-.42.27-.25-.09-.49-.2-.75-.35.31-.28.65-.49.97-.72.03-.02.08-.03.12-.03.38,0,.76,0,1.16,0v4.19h-1.02v-3.34l-.07-.02Z"/>
      <path class="cls-4" d="m32.31,62.32h-1.01v-3.37c-.23.04-.33.22-.53.27-.22-.1-.48-.19-.73-.35.35-.25.68-.48,1.01-.71.03-.02.08-.03.12-.03.37,0,.74,0,1.14,0v4.2Z"/>
      <path class="cls-4" d="m25.44,62.32h-1.01v-3.37c-.23.04-.33.22-.53.27-.22-.1-.48-.19-.73-.35.35-.25.68-.48,1.01-.71.03-.02.08-.03.12-.03.37,0,.74,0,1.14,0v4.2Z"/>
      <path class="cls-4" d="m26.05,61.25c.33,0,.72.01,1.05.01.1.29.25.48.64.48.36,0,.6-.15.61-.58,0-.19,0-.37,0-.59-.18,0-.31,0-.45,0-.41,0-.81,0-1.19-.18-.42-.21-.66-.44-.66-.99,0-.45.16-.89.6-1.08.35-.16.71-.18,1.06-.19.41,0,.81.04,1.21.25.34.19.51.49.5.9-.02.59-.01,1.18,0,1.77.02.72-.39.97-.67,1.1-.65.24-1.58.23-2.08,0-.38-.17-.65-.53-.63-.9Zm1.11-1.9c0,.39.14.68.58.68s.58-.27.58-.68-.19-.68-.58-.68-.58.28-.58.68Z"/>
      <path class="cls-4" d="m29.16,39.42s0-1.89,0-2.79c-.81-.06-1.6.12-2.37.27-.06-1.32-.26-2.57-.77-3.75-.5-1.17-1.24-2.19-2.14-3.15,1.27-.05,2.84.59,3.21,1.29-.22.04-.47-.08-.69.12.82,1.3,1.31,2.71,1.42,4.29.46-.1.91-.09,1.35-.08,0-1.53,0-3.03,0-4.54-.31-.07-.64,0-.98.09.32-.53,1.53-2.64,1.68-2.7h0c.14.06,1.36,2.18,1.68,2.7-.35-.08-.69-.16-1-.09v4.54c.44,0,.91-.01,1.36.08.1-1.58.59-2.99,1.42-4.29-.22-.19-.47-.08-.69-.12.37-.7,1.94-1.34,3.21-1.29-.9.95-1.64,1.97-2.14,3.15-.51,1.19-.7,2.43-.77,3.75-.78-.15-1.58-.34-2.39-.27v2.79h-1.37Z"/>
    </g>
  </g>
  <g>
    <path class="cls-4" d="m92.07,45.13h-4.31v-5.87h-7.88v5.85h-4.02v-19.8h4.05v9.88h7.82v-9.84h4.34v19.77Z"/>
    <path class="cls-4" d="m128.35,38.34c1.11.92,2.16,1.79,3.2,2.65-1.4,2.42-5.28,5-9.93,4.16-4.53-.82-7.92-4.66-8.19-9.23-.27-4.58,2.62-8.76,6.93-10.12,4.64-1.46,8.98.71,10.86,3.39-1.04.81-2.09,1.62-3.18,2.47-.14-.17-.28-.31-.4-.46-2.33-2.79-6.42-2.66-8.59.27-1.79,2.43-1.64,5.78.37,8.03,2.42,2.71,6.58,2.36,8.63-.72.08-.13.17-.25.29-.43Z"/>
    <path class="cls-4" d="m100.02,42.95c-.42.75-.82,1.46-1.21,2.15h-3.85c2.89-6.63,5.83-13.15,8.8-19.68,3.18,6.5,6.29,13.01,9.16,19.71h-4.23c-.38-.72-.76-1.44-1.15-2.18h-7.52Zm5.9-3.76c-.75-1.74-1.48-3.41-2.2-5.09-.04,0-.07,0-.11,0-.72,1.68-1.44,3.36-2.18,5.09h4.49Z"/>
  </g>
  <g>
    <path class="cls-4" d="m153.23,45.04h-2.76c-2.15-2.84-4.3-5.66-6.44-8.48-.05,0-.09.02-.14.03v8.45h-3.18v-14.43h2.78c2.12,2.77,4.26,5.56,6.4,8.35l.16-.04v-8.3h3.18v14.44Z"/>
    <path class="cls-4" d="m226,45.03h-3.17v-14.44h2.76c2.13,2.78,4.28,5.59,6.44,8.41.06-.01.11-.03.17-.04v-8.36h3.14v14.43h-2.77c-2.1-2.77-4.25-5.59-6.39-8.42-.06.01-.11.03-.17.04v8.39Z"/>
    <path class="cls-4" d="m220.61,37.78c-.01,4.42-3.14,7.56-7.53,7.54-4.29-.01-7.4-3.22-7.39-7.6,0-4.35,3.16-7.43,7.56-7.4,4.41.03,7.37,3.03,7.36,7.46Zm-11.56-.07c-.02.92.19,1.78.64,2.56.77,1.32,1.86,2.17,3.44,2.18,1.54,0,2.7-.73,3.43-2.05.96-1.76.96-3.57-.04-5.32-1.08-1.87-3.51-2.46-5.34-1.31-1.44.9-2.06,2.28-2.13,3.94Z"/>
    <path class="cls-4" d="m181.46,30.59h3.16c1.73,4.78,3.45,9.55,5.21,14.43h-3.57c-.36-1.15-.73-2.32-1.12-3.53h-4.27c-.37,1.17-.75,2.34-1.13,3.54h-3.44c1.74-4.88,3.44-9.65,5.14-14.44Zm2.86,8.04c-.43-1.42-.81-2.7-1.2-3.97-.06.01-.11.02-.17.03-.39,1.29-.77,2.58-1.18,3.94h2.54Z"/>
    <path class="cls-4" d="m160.1,30.58h3.14c1.73,4.77,3.46,9.54,5.24,14.48-1.25.07-2.38.06-3.58,0-.37-1.2-.74-2.37-1.11-3.56h-4.3c-.36,1.15-.72,2.3-1.1,3.52h-3.42c1.66-4.87,3.43-9.64,5.12-14.44Zm1.65,4.03s-.09,0-.14,0c-.4,1.31-.79,2.63-1.2,3.98h2.53c-.42-1.39-.8-2.69-1.19-3.99Z"/>
    <path class="cls-4" d="m189.39,33.34v-2.7h8.77v2.67h-2.69v11.72h-3.27v-11.69h-2.81Z"/>
    <path class="cls-4" d="m170.81,45.02v-11.66h-2.76v-2.75h8.7v2.68h-2.66v11.73h-3.28Z"/>
    <path class="cls-4" d="m200.3,30.59h3.14v14.44h-3.14v-14.44Z"/>
  </g>
</svg>