<?xml version="1.0" encoding="UTF-8"?>
<svg id="Layer_1" data-name="Layer 1" xmlns="http://www.w3.org/2000/svg" viewBox="0 0 400 110">
  <defs>
    <style>
      .cls-1 {
        fill: #fff;
      }

      .cls-1, .cls-2 {
        opacity: .75;
      }

      .cls-1, .cls-2, .cls-3, .cls-4, .cls-5, .cls-6, .cls-7, .cls-8 {
        stroke-width: 0px;
      }

      .cls-2 {
        fill: lime;
      }

      .cls-3 {
        fill: none;
      }

      .cls-4 {
        opacity: .48;
      }

      .cls-4, .cls-6 {
        fill: #446bd8;
      }

      .cls-5 {
        fill: #0ca8a3;
        opacity: .26;
      }

      .cls-7 {
        fill: #8cc4e4;
      }

      .cls-8 {
        fill: #fff100;
      }
    </style>
  </defs>
  <g>
    <path class="cls-6" d="m304.76,62.57c11.46-7.33,16.2-21.54,11.82-34.11,7.23-4.14,14.26-7.61,20.87-10.05,26.49-9.8,50.87-9.5,61.24-3,.85.53,1.77-.59,1.07-1.31-10.48-11-36.33-20.14-75.9-5.5-5.61,2.08-11,4.44-16.19,7-9.02-7.49-22.06-9.08-32.9-3.01-12.22,6.85-17.6,21.18-13.61,34.05-1.75,1.45-3.48,2.9-5.18,4.36-8.92-1.3-20.61-1.29-31.62.66-1.01.18-1.91.36-2.72.55,21.54,3.45,43.37,6.59,63.37,8.66"/>
    <path class="cls-6" d="m304.52,62.74s0,0,0,0c0,0,0,0-.01,0,0,0,0,0,.01,0Z"/>
    <path class="cls-7" d="m304.77,62.57h0c-.08.05-.16.11-.24.16.08-.05.16-.11.25-.16Z"/>
  </g>
  <g>
    <path class="cls-3" d="m301.26,64.5s.09-.04.13-.06c-.02,0-.03.01-.05.02-.03.01-.06.03-.09.04Z"/>
    <polygon class="cls-3" points="301.39 64.44 301.39 64.44 301.39 64.44 301.39 64.44"/>
    <path class="cls-3" d="m290.48,67.15s-.05,0-.08,0c-.02,0-.03,0-.05,0,.04,0,.09,0,.13,0Z"/>
    <polygon class="cls-3" points="303.29 63.47 303.3 63.46 303.29 63.47 303.29 63.47"/>
    <path class="cls-3" d="m286.15,67.04s.07,0,.11.01c-.02,0-.04,0-.07,0-.01,0-.03,0-.04,0Z"/>
    <path class="cls-5" d="m301.39,64.44s0,0,0,0c-.02,0-.03.01-.05.02.02,0,.03-.01.05-.02Z"/>
    <path class="cls-5" d="m303.3,63.46c.41-.23.81-.47,1.21-.72-.4.25-.8.49-1.21.72,0,0,0,0,0,0Z"/>
    <path class="cls-5" d="m294.68,66.64h0c.07-.01.15-.03.22-.04,0,0,0,0,0,0-.07.02-.15.03-.22.04Z"/>
    <path class="cls-5" d="m290.35,67.16s.03,0,.05,0c-.02,0-.03,0-.05,0h0Z"/>
    <path class="cls-5" d="m286.19,67.05s.04,0,.07,0h0s-.04,0-.07,0Z"/>
    <path class="cls-2" d="m286.15,67.04s.03,0,.04,0c.02,0,.04,0,.07,0h0s-.07,0-.11-.01Zm4.19.12s.02,0,.03,0c0,0-.02,0-.03,0h0Zm4.34-.52h0c.07-.01.15-.03.22-.04,0,0,0,0,0,0-.07.02-.15.03-.22.04Zm6.66-2.18s.01,0,.02-.01c-.04.02-.07.03-.11.05.03-.01.06-.03.09-.04Z"/>
  </g>
  <path class="cls-8" d="m276.44,10.61l.7,1.25s1.15-.33,4.6,4.34c3.36,4.56,4.43,9.25,4.43,9.25l5.54,7.83-.77,2.56-6.67-9.1s-5.41-1.56-8-5.74c-2.59-4.17-1.46-7.41-1.46-7.41l-.55-1.41,2.18-1.59Z"/>
  <path class="cls-7" d="m314.47,23.77c-3.45-6.15-8.8-10.57-14.9-12.94-6.25,16.04-11.56,32.95-14.57,50.02,6.83.71,13.45,1.29,19.77,1.72,12.91-8.26,17.3-25.26,9.7-38.81Z"/>
  <g>
    <path class="cls-6" d="m304.51,62.75s0,0,.01,0c0,0,0,0-.01,0h0Z"/>
    <path class="cls-1" d="m304.51,62.75s0,0,.01,0c0,0,0,0-.01,0h0Z"/>
  </g>
  <path class="cls-1" d="m78.49,36.32c50.84,3.15,115.3,25.82,211.32,31.76,74.35,4.6,103.59-6.9,110.2-10.13v-.37c-6.81,1.83-36.67,8.63-92.68,5.17-64.38-3.98-162.18-24.9-198.79-29.67C37.89,23.86,2.97,47.79,0,49.93v.03c2.63-1.52,30.18-16.64,78.49-13.65Z"/>
  <path class="cls-4" d="m0,49.97v48.61c6.81,1.83,36.67,8.63,92.68,5.17,64.38-3.98,162.18-24.9,198.79-29.67,70.65-9.21,105.57,14.72,108.53,16.87v-33.36s0,.37,0,.37c-6.6,3.23-35.85,14.73-110.2,10.13-96.02-5.94-160.48-28.61-211.32-31.76C30.18,33.33,2.63,48.46,0,49.97v-.03"/>
</svg>