<?xml version="1.0" encoding="UTF-8"?>
<svg id="brasse" xmlns="http://www.w3.org/2000/svg" viewBox="0 0 400 130">
  <defs>
    <style>
      .cls-1 {
        fill: #fff;
        opacity: .75;
      }

      .cls-1, .cls-2, .cls-3, .cls-4, .cls-5 {
        stroke-width: 0px;
      }

      .cls-2 {
        opacity: .48;
      }

      .cls-2, .cls-3 {
        fill: #446bd8;
      }

      .cls-4 {
        fill: #8cc4e4;
      }

      .cls-5 {
        fill: #fff100;
      }
    </style>
  </defs>
  <circle class="cls-3" cx="128.26" cy="30" r="29"/>
  <path class="cls-4" d="m109.8,7.64c5.02-4.15,11.45-6.64,18.46-6.64,16.02,0,29,12.98,29,29,0,6.94-2.44,13.31-6.51,18.3-15.21-11.65-28.83-25.92-40.96-40.66Z"/>
  <path class="cls-5" d="m98.36,27.59h1.42s.27-1.16,6.01-1.88,10.18.65,10.18.65l9.49-1,1.85,1.92-11.13,1.36s-3.99,3.93-8.87,4.15c-4.88.22-7.14-2.34-7.14-2.34l-1.49-.2-.32-2.66Z"/>
  <path class="cls-3" d="m173.52,77.06c-5-8.01-15.03-19.99-30.26-18.35-25,2.68-34.34,22.21-53.98,26.13-16.93,3.37-27.86-2.44-31.63-5.16-8-5.77-9.61-2.62-1.93,7.86,4.91.14,10.22.19,15.9.12,6.67-.13,13.8-.41,21.43-.88,23.84-1.48,52.27-5.27,80.47-9.71Z"/>
  <path class="cls-1" d="m321.88,60.35c-50.84,3.15-115.3,25.82-211.32,31.76C36.21,96.71,6.97,85.21.36,81.98v-.37c6.81,1.83,36.67,8.63,92.68,5.17,64.38-3.98,162.18-24.9,198.79-29.67,70.65-9.21,105.57,14.72,108.53,16.87v.03c-2.63-1.52-30.18-16.64-78.49-13.65Z"/>
  <path class="cls-2" d="m400.36,74.01v48.61c-6.81,1.83-36.67,8.63-92.68,5.17-64.38-3.98-162.18-24.9-198.79-29.67C38.25,88.9,3.33,112.83.36,114.98v-33.36s0,.37,0,.37c6.6,3.23,35.85,14.73,110.2,10.13,96.02-5.94,160.48-28.61,211.32-31.76,48.31-2.99,75.86,12.13,78.49,13.65v-.03"/>
</svg>