<?xml version="1.0" encoding="UTF-8"?>
<svg id="Layer_1" data-name="Layer 1" xmlns="http://www.w3.org/2000/svg" viewBox="0 0 400 158">
  <defs>
    <style>
      .cls-1 {
        fill: #fff;
        opacity: .7;
      }

      .cls-1, .cls-2, .cls-3, .cls-4, .cls-5 {
        stroke-width: 0px;
      }

      .cls-2 {
        opacity: .48;
      }

      .cls-2, .cls-3 {
        fill: #446bd8;
      }

      .cls-4 {
        fill: #8bc3e3;
      }

      .cls-5 {
        fill: #fff100;
      }
    </style>
  </defs>
  <path class="cls-3" d="m344.13,4.05c-3.48-1.41-45.56,17.95-56.7,59.55-.57,2.14-1.05,4.22-1.44,6.25,4.65-.26,9.29-2.1,13.94-2.74.56-3.6,1.35-7.16,2.44-10.61,10.03-31.72,37.73-46.74,42.58-52.3l-.83-.15Z"/>
  <path class="cls-3" d="m294.13,69.7c-8.75.93-15.11,4.99-20.79,9.58,9.11,1.08,17.93,1.98,26.29,2.64,5.32-7.54,5.22-13.36-5.5-12.23Z"/>
  <path class="cls-3" d="m307.32,82.47c1.83.11,3.63.21,5.41.31,9.98-1.82,18.86-8.53,23-18.61,6.47-15.75-1.05-33.76-16.8-40.23-15.75-6.47-33.76,1.05-40.23,16.8-6.47,15.75,1.05,33.76,16.8,40.23,1.28.53,2.58.95,3.88,1.3.08-.11.16-.22.24-.34,2.61.21,5.18.39,7.69.54Z"/>
  <path class="cls-4" d="m334.4,37.92c-3.26-6.1-8.58-11.15-15.47-13.98-15.75-6.47-33.76,1.05-40.23,16.8-2.8,6.82-2.98,14.07-1,20.62,19.66-5.31,38.82-13.84,56.7-23.43Z"/>
  <path class="cls-5" d="m337.59,62.16l-1.4-.57s.2-1.25-5.15-4.28c-5.21-2.95-10.27-3.47-10.27-3.47l-8.93-4.81-2.59,1.14,10.4,5.84s2.33,5.48,7.04,7.66c4.71,2.18,7.96.59,7.96.59l1.55.4,1.39-2.49Z"/>
  <path class="cls-1" d="m78.49,56.05c50.84,3.15,115.3,25.82,211.32,31.76,74.35,4.6,103.59-6.9,110.2-10.13v-.37c-6.81,1.83-36.67,8.63-92.68,5.17-64.38-3.98-162.18-24.9-198.79-29.67C37.89,43.59,2.97,67.52,0,69.67v.03c2.63-1.52,30.18-16.64,78.49-13.65Z"/>
  <path class="cls-3" d="m294.35,97.11c1.5-5.94,3.89-11.7,6.77-17.18-4.27-1.65-7.76-4.85-12.77-5.02-1.07,2.6-2.07,5.35-2.96,8.31-12.41,41.24,11.62,73.16,13.56,72.67,4-1-12.74-26.52-4.59-58.77Z"/>
  <path class="cls-2" d="m0,69.71v48.61c6.81,1.83,36.67,8.63,92.68,5.17,64.38-3.98,162.18-24.9,198.79-29.67,70.65-9.21,105.57,14.72,108.53,16.87v-33.36s0,.37,0,.37c-6.6,3.23-35.85,14.73-110.2,10.13-96.02-5.94-160.48-28.61-211.32-31.76C30.18,53.07,2.63,68.19,0,69.71v-.03"/>
</svg>