<?xml version="1.0" encoding="UTF-8"?>
<svg id="crawle" xmlns="http://www.w3.org/2000/svg" viewBox="0 0 400 121">
  <defs>
    <style>
      .cls-1 {
        fill: #fff;
        opacity: .75;
      }

      .cls-1, .cls-2, .cls-3, .cls-4, .cls-5 {
        stroke-width: 0px;
      }

      .cls-2 {
        opacity: .48;
      }

      .cls-2, .cls-3 {
        fill: #446bd8;
      }

      .cls-4 {
        fill: #8bc3e3;
      }

      .cls-5 {
        fill: #fff100;
      }
    </style>
  </defs>
  <path class="cls-2" d="m400,63.82v48.61c-6.81,1.83-36.67,8.63-92.68,5.17-64.38-3.98-162.18-24.9-198.79-29.67C37.89,78.72,2.97,102.64,0,104.79v-33.36s0,.37,0,.37c6.6,3.23,35.85,14.73,110.2,10.13,96.02-5.94,160.48-28.61,211.32-31.76,48.31-2.99,75.86,12.13,78.49,13.65v-.03"/>
  <g>
    <path class="cls-3" d="m218.29,58.48c-42.77-25.09-64.8-44.99-84.51-53.35C87.57-14.47,57.12,42.08,57.26,42.24c3.55,3.96,25.44-29.67,56.9-29.35,31.41.32,42.29,36.15,54.63,54.67,17.24-2.67,34.5-5.61,50.66-8.44-.4-.21-.79-.42-1.16-.64Z"/>
    <path class="cls-3" d="m137.09,33.71c-12.09-11.98-31.61-11.89-43.6.2-11.68,11.79-11.88,30.62-.69,42.67,14.94-.93,31.67-2.77,49.02-5.11,7.15-11.9,5.56-27.56-4.74-37.76Z"/>
  </g>
  <path class="cls-1" d="m321.51,50.17c-50.84,3.15-115.3,25.82-211.32,31.76C35.85,86.53,6.6,75.03,0,71.8v-.37c6.81,1.83,36.67,8.63,92.68,5.17,64.38-3.98,162.18-24.9,198.79-29.67,70.65-9.21,105.57,14.72,108.53,16.87v.03c-2.63-1.52-30.18-16.64-78.49-13.65Z"/>
  <g>
    <path class="cls-4" d="m84.69,52.82c.62-6.89,3.55-13.61,8.8-18.91,11.98-12.09,31.5-12.19,43.6-.2,5.24,5.19,8.22,11.8,8.95,18.6-20.18,2.77-41.15,2.38-61.35.51Z"/>
    <g>
      <path class="cls-5" d="m109.79,54.26l-6.35,7.91s-4.46,2.46-8.11,7.2c-3.74,4.87-3.07,5.94-3.07,5.94l-1.07,1.07.34.27c.38-.02.75-.04,1.14-.06.04,0,.08,0,.12,0,1.83-.11,3.7-.24,5.58-.38,1.06-.54,2.26-1.37,3.44-2.67,3.49-3.85,3.5-9.8,3.5-9.8l7.3-9.43-2.83-.04Z"/>
      <path class="cls-5" d="m93.96,77.75h0c-.09-.08-.18-.16-.26-.24.09.08.18.16.26.24Z"/>
    </g>
  </g>
</svg>