<?xml version="1.0" encoding="UTF-8"?>
<svg id="Layer_1" data-name="Layer 1" xmlns="http://www.w3.org/2000/svg" viewBox="0 0 18 18">
  <defs>
    <style>
      .cls-1 {
        fill: #8bc4e5;
        stroke-width: 0px;
      }
    </style>
  </defs>
  <path class="cls-1" d="m.33.34C.77-.1,1.48-.1,1.92.34l7.08,7.08L16.08.34c.43-.45,1.14-.46,1.59-.03.45.43.46,1.14.03,1.59,0,0-.02.02-.03.03l-7.08,7.08,7.08,7.08c.43.45.42,1.16-.03,1.59-.44.42-1.13.42-1.56,0l-7.08-7.08-7.08,7.08c-.45.43-1.16.42-1.59-.03-.42-.44-.42-1.13,0-1.56l7.08-7.08L.33,1.93C-.11,1.49-.11.78.33.34Z"/>
</svg>