<?xml version="1.0" encoding="UTF-8"?>
<svg id="Layer_1" data-name="Layer 1" xmlns="http://www.w3.org/2000/svg" viewBox="0 0 20 20">
  <defs>
    <style>
      .cls-1 {
        fill: #8bc4e5;
        stroke-width: 0px;
      }
    </style>
  </defs>
  <path class="cls-1" d="m.37.38C.85-.11,1.65-.11,2.13.38l7.87,7.87L17.87.38c.48-.5,1.27-.51,1.77-.03.5.48.51,1.27.03,1.77-.01.01-.02.02-.03.03l-7.87,7.87,7.87,7.87c.48.5.47,1.29-.03,1.77-.48.47-1.25.47-1.74,0l-7.87-7.87-7.87,7.87c-.5.48-1.29.47-1.77-.03-.47-.48-.47-1.25,0-1.74l7.87-7.87L.37,2.15C-.12,1.66-.12.87.37.38Z"/>
</svg>